<!-- Generator: Adobe Illustrator 21.1.0, SVG Export Plug-In  -->
<svg version="1.1"
	 xmlns="http://www.w3.org/2000/svg" xmlns:xlink="http://www.w3.org/1999/xlink" xmlns:a="http://ns.adobe.com/AdobeSVGViewerExtensions/3.0/"
	 x="0px" y="0px" width="167.4px" height="71.7px" viewBox="0 0 167.4 71.7" style="enable-background:new 0 0 167.4 71.7;"
	 xml:space="preserve">
<style type="text/css">
	.st0{fill:url(#SVGID_1_);}
	.st1{fill:url(#SVGID_2_);}
	.st2{fill:url(#SVGID_3_);}
	.st3{fill:url(#SVGID_4_);}
	.st4{fill:url(#SVGID_5_);}
	.st5{fill:url(#SVGID_6_);}
	.st6{fill:url(#SVGID_7_);}
	.st7{fill:url(#SVGID_8_);}
	.st8{fill:url(#SVGID_9_);}
	.st9{fill:url(#SVGID_10_);}
	.st10{fill:url(#SVGID_11_);}
	.st11{fill:url(#SVGID_12_);}
	.st12{fill:url(#SVGID_13_);}
	.st13{fill:url(#SVGID_14_);}
	.st14{fill:url(#SVGID_15_);}
	.st15{fill:url(#SVGID_16_);}
	.st16{fill:url(#SVGID_17_);}
	.st17{fill:url(#SVGID_18_);}
</style>
<defs>
</defs>
<g>
	
		<linearGradient id="SVGID_1_" gradientUnits="userSpaceOnUse" x1="740.2678" y1="43.4704" x2="777.8246" y2="81.0272" gradientTransform="matrix(-1 0 0 1 875.8104 0)">
		<stop  offset="0" style="stop-color:#FFD6AD;stop-opacity:0"/>
		<stop  offset="0.1714" style="stop-color:#C6A686;stop-opacity:0.1714"/>
		<stop  offset="0.3968" style="stop-color:#816B57;stop-opacity:0.3968"/>
		<stop  offset="0.6007" style="stop-color:#4B3D31;stop-opacity:0.6007"/>
		<stop  offset="0.7755" style="stop-color:#241C17;stop-opacity:0.7755"/>
		<stop  offset="0.9144" style="stop-color:#0C0706;stop-opacity:0.9144"/>
		<stop  offset="1" style="stop-color:#030000"/>
	</linearGradient>
	<path class="st0" d="M81.6,64.6c0,0,57,0.5,65.9-0.2l-31.2-4c0,0,14.2-6.8,29-7.2C145.3,53.2,100.6,53.2,81.6,64.6z"/>
	
		<linearGradient id="SVGID_2_" gradientUnits="userSpaceOnUse" x1="32.5174" y1="43.4707" x2="70.0742" y2="81.0275" gradientTransform="matrix(1 0 0 1 -0.6504 0)">
		<stop  offset="0" style="stop-color:#FFD6AD;stop-opacity:0"/>
		<stop  offset="0.1714" style="stop-color:#C6A686;stop-opacity:0.1714"/>
		<stop  offset="0.3968" style="stop-color:#816B57;stop-opacity:0.3968"/>
		<stop  offset="0.6007" style="stop-color:#4B3D31;stop-opacity:0.6007"/>
		<stop  offset="0.7755" style="stop-color:#241C17;stop-opacity:0.7755"/>
		<stop  offset="0.9144" style="stop-color:#0C0706;stop-opacity:0.9144"/>
		<stop  offset="1" style="stop-color:#030000"/>
	</linearGradient>
	<path class="st1" d="M85.9,64.6c0,0-57,0.5-65.9-0.2l31.2-4c0,0-14.2-6.8-29-7.2C22.2,53.2,66.8,53.2,85.9,64.6z"/>
	<g>
		<g>
			<g>
				
					<linearGradient id="SVGID_3_" gradientUnits="userSpaceOnUse" x1="683.507" y1="290.0547" x2="630.7439" y2="223.5384" gradientTransform="matrix(-0.8234 -0.5675 -0.5675 0.8234 813.7745 223.5954)">
					<stop  offset="0" style="stop-color:#FBBD37"/>
					<stop  offset="0.2888" style="stop-color:#FDD041"/>
					<stop  offset="0.4987" style="stop-color:#FFE149"/>
					<stop  offset="0.6749" style="stop-color:#FFDE47"/>
					<stop  offset="0.8291" style="stop-color:#FDD342"/>
					<stop  offset="0.9745" style="stop-color:#FBC139"/>
					<stop  offset="1" style="stop-color:#FBBD37"/>
				</linearGradient>
				<path class="st2" d="M167.4,66.5c0,0,0.7-21.9-2.6-24.3c-2.4-1.8-55.3,1.3-78.3,14.4c0,0-7.2,7.1-0.8,10
					c6.4,2.9,49,7.4,76.9,3.7C162.5,70.3,165.8,71,167.4,66.5z"/>
			</g>
		</g>
	</g>
	<g>
		<g>
			<linearGradient id="SVGID_4_" gradientUnits="userSpaceOnUse" x1="98.8148" y1="70.2655" x2="136.1388" y2="5.6184">
				<stop  offset="0" style="stop-color:#FBBD37"/>
				<stop  offset="0.2888" style="stop-color:#FDD041"/>
				<stop  offset="0.4987" style="stop-color:#FFE149"/>
				<stop  offset="0.6749" style="stop-color:#FFDE47"/>
				<stop  offset="0.8291" style="stop-color:#FDD342"/>
				<stop  offset="0.9745" style="stop-color:#FBC139"/>
				<stop  offset="1" style="stop-color:#FBBD37"/>
			</linearGradient>
			<path class="st3" d="M155,23.8c0,0-3.8-8.1-13.2-14.6C133.4,3.2,124.3,0.4,120,0c-3.2-0.3-31.5,18-38.3,54c0,0-1.1,9.2,6.1,8.6
				c7.2-0.6,51.4-17.5,65.8-33.4C153.6,29.2,156.7,28.2,155,23.8z"/>
		</g>
	</g>
	
		<linearGradient id="SVGID_5_" gradientUnits="userSpaceOnUse" x1="764.9219" y1="32.8063" x2="793.7095" y2="61.5939" gradientTransform="matrix(-1 0 0 1 875.8104 0)">
		<stop  offset="0" style="stop-color:#FFD6AD;stop-opacity:0"/>
		<stop  offset="0.1714" style="stop-color:#C6A686;stop-opacity:0.1714"/>
		<stop  offset="0.3968" style="stop-color:#816B57;stop-opacity:0.3968"/>
		<stop  offset="0.6007" style="stop-color:#4B3D31;stop-opacity:0.6007"/>
		<stop  offset="0.7755" style="stop-color:#241C17;stop-opacity:0.7755"/>
		<stop  offset="0.9144" style="stop-color:#0C0706;stop-opacity:0.9144"/>
		<stop  offset="1" style="stop-color:#030000"/>
	</linearGradient>
	<path class="st4" d="M83.7,63.2c0,0,12.9-36,24.6-31.9C120,35.4,104,53.1,83.7,63.2z"/>
	<g>
		<g>
			<g>
				
					<linearGradient id="SVGID_6_" gradientUnits="userSpaceOnUse" x1="48.007" y1="-178.0928" x2="100.7701" y2="-111.5766" gradientTransform="matrix(0.8234 -0.5675 0.5675 0.8234 61.3855 223.5954)">
					<stop  offset="0" style="stop-color:#FBBD37"/>
					<stop  offset="0.2888" style="stop-color:#FDD041"/>
					<stop  offset="0.4987" style="stop-color:#FFE149"/>
					<stop  offset="0.6749" style="stop-color:#FFDE47"/>
					<stop  offset="0.8291" style="stop-color:#FDD342"/>
					<stop  offset="0.9745" style="stop-color:#FBC139"/>
					<stop  offset="1" style="stop-color:#FBBD37"/>
				</linearGradient>
				<path class="st5" d="M0.1,66.5c0,0-0.7-21.9,2.6-24.3c2.4-1.8,55.3,1.3,78.3,14.4c0,0,7.2,7.1,0.8,10c-6.4,2.9-49,7.4-76.9,3.7
					C4.9,70.3,1.6,71,0.1,66.5z"/>
			</g>
		</g>
	</g>
	<g>
		<g>
			
				<linearGradient id="SVGID_7_" gradientUnits="userSpaceOnUse" x1="31.9206" y1="5.6183" x2="69.2448" y2="70.2656" gradientTransform="matrix(1 0 0 1 -0.6504 0)">
				<stop  offset="0" style="stop-color:#FBBD37"/>
				<stop  offset="0.2888" style="stop-color:#FDD041"/>
				<stop  offset="0.4987" style="stop-color:#FFE149"/>
				<stop  offset="0.6749" style="stop-color:#FFDE47"/>
				<stop  offset="0.8291" style="stop-color:#FDD342"/>
				<stop  offset="0.9745" style="stop-color:#FBC139"/>
				<stop  offset="1" style="stop-color:#FBBD37"/>
			</linearGradient>
			<path class="st6" d="M12.4,23.8c0,0,3.8-8.1,13.2-14.6C34,3.2,43.1,0.4,47.4,0c3.2-0.3,31.5,18,38.3,54c0,0,1.1,9.2-6.1,8.6
				c-7.2-0.6-51.4-17.5-65.8-33.4C13.8,29.2,10.7,28.2,12.4,23.8z"/>
		</g>
	</g>
	
		<linearGradient id="SVGID_8_" gradientUnits="userSpaceOnUse" x1="57.1704" y1="32.8063" x2="85.9582" y2="61.594" gradientTransform="matrix(1 0 0 1 -0.6504 0)">
		<stop  offset="0" style="stop-color:#FFD6AD;stop-opacity:0"/>
		<stop  offset="0.1714" style="stop-color:#C6A686;stop-opacity:0.1714"/>
		<stop  offset="0.3968" style="stop-color:#816B57;stop-opacity:0.3968"/>
		<stop  offset="0.6007" style="stop-color:#4B3D31;stop-opacity:0.6007"/>
		<stop  offset="0.7755" style="stop-color:#241C17;stop-opacity:0.7755"/>
		<stop  offset="0.9144" style="stop-color:#0C0706;stop-opacity:0.9144"/>
		<stop  offset="1" style="stop-color:#030000"/>
	</linearGradient>
	<path class="st7" d="M83.7,63.2c0,0-12.9-36-24.6-31.9C47.5,35.4,63.4,53.1,83.7,63.2z"/>
	<g>
		<g>
			<linearGradient id="SVGID_9_" gradientUnits="userSpaceOnUse" x1="91.2426" y1="71.5576" x2="78.034" y2="54.9061">
				<stop  offset="0" style="stop-color:#FBBD37"/>
				<stop  offset="0.2888" style="stop-color:#FDD041"/>
				<stop  offset="0.4987" style="stop-color:#FFE149"/>
				<stop  offset="0.6749" style="stop-color:#FFDE47"/>
				<stop  offset="0.8291" style="stop-color:#FDD342"/>
				<stop  offset="0.9745" style="stop-color:#FBC139"/>
				<stop  offset="1" style="stop-color:#FBBD37"/>
			</linearGradient>
			<path class="st8" d="M75.2,57.2c0,0,8.4-4.5,19,0c0,0,6.1,5.1,1.1,11.1c0,0-11.8,4.5-21.3,0C74.1,68.3,71,61.3,75.2,57.2z"/>
		</g>
	</g>
</g>
</svg>
